<svg id="Capa_1" enable-background="new 0 0 512 512" height="512" viewBox="0 0 512 512" width="512" xmlns="http://www.w3.org/2000/svg" xmlns:xlink="http://www.w3.org/1999/xlink"><linearGradient id="SVGID_1_" gradientUnits="userSpaceOnUse" x1="256" x2="256" y1="451" y2="61"><stop offset="0" stop-color="#fd3a84"/><stop offset="1" stop-color="#ffa68d"/></linearGradient><g><g><path d="m497 361h-15v-285c0-8.284-6.716-15-15-15h-422c-8.284 0-15 6.716-15 15v285h-15c-8.284 0-15 6.716-15 15 0 41.355 33.645 75 75 75h362c41.355 0 75-33.645 75-75 0-8.284-6.716-15-15-15zm-437-270h392v270h-392zm377 330h-362c-19.556 0-36.239-12.539-42.43-30.01h446.86c-6.191 17.471-22.874 30.01-42.43 30.01zm-112.68-207.481-90-60c-4.603-3.068-10.52-3.355-15.398-.744-4.877 2.61-7.922 7.693-7.922 13.225v120c0 5.532 3.045 10.615 7.922 13.225 4.866 2.604 10.784 2.332 15.398-.744l90-60c4.173-2.782 6.68-7.465 6.68-12.481s-2.506-9.699-6.68-12.481zm-83.32 44.453v-63.944l47.958 31.972z" fill="url(#SVGID_1_)"/></g></g></svg>